<?xml version="1.0" standalone="no"?>
<!DOCTYPE svg PUBLIC "-//W3C//DTD SVG 20010904//EN"
 "http://www.w3.org/TR/2001/REC-SVG-20010904/DTD/svg10.dtd">
<svg version="1.0" xmlns="http://www.w3.org/2000/svg"
 width="85.000000pt" height="23.000000pt" viewBox="0 0 85.000000 23.000000"
 preserveAspectRatio="xMidYMid meet">

<g transform="translate(0.000000,23.000000) scale(0.100000,-0.100000)"
fill="#fff" stroke="none">
<path d="M0 107 c0 -83 17 -107 73 -107 64 0 71 9 75 94 4 65 2 76 -12 76 -13
0 -16 -12 -16 -70 0 -60 -3 -71 -21 -81 -16 -8 -28 -8 -45 0 -22 10 -24 17
-24 81 0 56 -3 70 -15 70 -12 0 -15 -14 -15 -63z"/>
<path d="M266 138 c-14 -92 -16 -138 -6 -138 5 0 10 21 10 48 0 76 13 79 45
12 16 -33 31 -60 34 -60 3 0 19 30 36 67 16 36 30 62 31 57 1 -5 5 -35 9 -66
5 -42 11 -58 21 -58 13 0 14 10 9 57 -15 136 -28 145 -70 51 l-27 -63 -31 63
c-35 69 -54 78 -61 30z"/>
<path d="M490 85 l0 -85 63 2 c56 1 57 2 15 5 -47 4 -48 5 -48 38 0 33 2 34
43 38 l42 4 -42 1 c-42 2 -43 3 -43 36 0 34 1 35 48 39 42 3 41 4 -15 5 l-63
2 0 -85z"/>
<path d="M640 85 l0 -85 49 0 c63 0 90 22 98 77 5 35 2 45 -20 67 -21 21 -36
26 -77 26 l-50 0 0 -85z m96 61 c14 -11 19 -26 19 -61 0 -51 -20 -75 -62 -75
-22 0 -23 3 -23 75 0 72 1 75 23 75 13 0 32 -6 43 -14z"/>
<path d="M820 85 c0 -69 3 -85 15 -85 12 0 15 16 15 85 0 69 -3 85 -15 85 -12
0 -15 -16 -15 -85z"/>
<path d="M183 83 c9 -2 25 -2 35 0 9 3 1 5 -18 5 -19 0 -27 -2 -17 -5z"/>
</g>
</svg>
