<?xml version="1.0" standalone="no"?>
<!DOCTYPE svg PUBLIC "-//W3C//DTD SVG 20010904//EN"
 "http://www.w3.org/TR/2001/REC-SVG-20010904/DTD/svg10.dtd">
<svg version="1.0" xmlns="http://www.w3.org/2000/svg"
 width="57.000000pt" height="32.000000pt" viewBox="0 0 57.000000 32.000000"
 preserveAspectRatio="xMidYMid meet">

<g transform="translate(0.000000,32.000000) scale(0.100000,-0.100000)"
fill="#fff" stroke="none">
<path d="M132 285 c-64 -53 -49 -117 45 -207 86 -81 121 -86 189 -26 42 37 43
58 5 100 l-30 33 -28 -27 c-37 -35 -81 -37 -111 -5 -12 13 -22 28 -22 33 0 6
18 28 40 49 22 21 40 42 40 45 0 11 -49 30 -75 30 -13 0 -37 -11 -53 -25z"/>
<path d="M284 248 c-50 -48 -61 -64 -53 -75 17 -20 35 -16 75 19 l36 32 49
-52 50 -51 19 32 c33 54 20 116 -31 143 -52 26 -76 18 -145 -48z"/>
</g>
</svg>
